<svg width="257" height="29" viewBox="0 0 257 29" fill="none" xmlns="http://www.w3.org/2000/svg">
<path fill-rule="evenodd" clip-rule="evenodd" d="M145.257 20.1603C145.257 20.021 145.321 19.9514 145.451 19.9514H148.972C149.023 19.9514 149.075 19.9785 149.126 20.0288C149.178 20.0791 149.206 20.1371 149.206 20.199C149.206 20.7021 149.344 21.2129 149.621 21.7314C149.899 22.246 150.299 22.7297 150.821 23.1786C151.344 23.6275 152.041 23.9951 152.908 24.2853C153.779 24.5755 154.75 24.7187 155.819 24.7187C157.843 24.7187 159.45 24.2621 160.642 23.345C161.834 22.4279 162.432 21.3057 162.432 19.9785C162.432 19.3129 162.317 18.7286 162.088 18.2217C161.858 17.7148 161.569 17.3046 161.217 16.9989C160.868 16.6932 160.413 16.4301 159.85 16.2173C159.288 16.0045 158.682 15.8535 158.033 15.7607C157.87 15.7374 157.706 15.7143 157.543 15.6914L157.06 15.6238L157.056 15.6233L157.053 15.6228C156.729 15.5775 156.404 15.5322 156.08 15.4859C155.28 15.3737 154.595 15.277 154.025 15.1957C153.455 15.1145 152.778 14.9752 151.993 14.7778C151.209 14.5805 150.536 14.3599 149.982 14.1123C149.427 13.8646 148.873 13.5473 148.318 13.1565C147.764 12.7657 147.305 12.3245 146.944 11.8331C146.584 11.3417 146.291 10.7496 146.065 10.057C145.839 9.36433 145.729 8.60203 145.729 7.77008C145.729 6.18356 146.204 4.78666 147.15 3.58323C148.097 2.37981 149.297 1.48207 150.746 0.89003C152.195 0.297993 153.748 0.00390625 155.395 0.00390625C156.682 0.00390625 157.902 0.166428 159.05 0.495338C160.199 0.824249 161.232 1.3002 162.155 1.9232C163.078 2.5462 163.826 3.37041 164.397 4.3881C164.967 5.40578 165.284 6.56278 165.335 7.84747C165.335 7.98677 165.272 8.05642 165.141 8.05642H161.565C161.434 8.05642 161.371 7.98677 161.371 7.84747C161.371 6.53956 160.809 5.45222 159.688 4.58931C158.567 3.72641 157.134 3.29689 155.395 3.29689C153.811 3.29689 152.461 3.72253 151.352 4.57383C150.243 5.42513 149.689 6.49313 149.689 7.77781C149.689 8.40081 149.819 8.95029 150.081 9.42237C150.342 9.89445 150.655 10.2698 151.015 10.5407C151.38 10.8154 151.883 11.0282 152.532 11.1869C153.178 11.3455 153.72 11.4539 154.152 11.5158L155.246 11.6725L155.771 11.748L156.021 11.784L156.023 11.7843L156.024 11.7845L156.024 11.7845C156.699 11.8821 157.308 11.9701 157.85 12.0459C158.456 12.1349 159.185 12.3013 160.032 12.5528C160.88 12.8043 161.585 13.0559 162.147 13.3113C162.71 13.5667 163.276 13.8994 163.838 14.3057C164.4 14.712 164.86 15.1764 165.208 15.691C165.557 16.2057 165.842 16.8248 166.064 17.5523C166.286 18.2798 166.392 19.0807 166.392 19.963C166.392 20.7679 166.274 21.5456 166.036 22.2963C165.798 23.047 165.406 23.7706 164.868 24.471C164.329 25.1714 163.66 25.7789 162.868 26.2936C162.076 26.8082 161.074 27.2261 159.862 27.5396C158.65 27.853 157.304 28.0116 155.819 28.0116C154.156 28.0116 152.647 27.7988 151.292 27.377C149.938 26.9553 148.825 26.3826 147.958 25.659C147.087 24.9354 146.422 24.1034 145.958 23.1631C145.495 22.2267 145.261 21.2283 145.261 20.1681L145.257 20.1603ZM0 18.3843V0.565094C0 0.437401 0.0633621 0.375488 0.194046 0.375488H3.56015C3.69083 0.375488 3.7542 0.437401 3.7542 0.565094V18.3805C3.7542 20.0444 4.36802 21.5148 5.59169 22.7917C6.81537 24.0687 8.26477 24.711 9.94387 24.711C11.623 24.711 13.0367 24.0726 14.2366 22.7917C15.4366 21.5148 16.0345 20.0444 16.0345 18.3805V0.565094C16.0345 0.437401 16.0979 0.375488 16.2286 0.375488H19.5947C19.7372 0.375488 19.8085 0.437401 19.8085 0.565094V18.3805C19.8085 20.145 19.3729 21.7624 18.5017 23.2367C17.6305 24.711 16.4385 25.8719 14.9257 26.7232C13.4129 27.5745 11.7497 28.0001 9.94783 28.0001C7.18762 28.0001 4.84323 27.0676 2.91069 25.2025C0.96627 23.3412 0 21.0659 0 18.3843ZM96.0053 22.2729V27.431C96.0053 27.5587 95.9419 27.6207 95.8112 27.6207H92.8332C92.7025 27.6207 92.6392 27.5587 92.6392 27.431V25.8909C92.0697 26.4225 91.2153 26.8974 90.0729 27.3187C88.8493 27.7715 87.4117 27.9998 85.7604 27.9998C83.1823 27.9998 81.2102 27.4426 79.8439 26.3281C78.4777 25.2137 77.7926 23.7123 77.7926 21.8201C77.7926 20.0711 78.545 18.651 80.0459 17.5675C81.5468 16.484 83.7051 15.9423 86.5128 15.9423H90.9402C91.261 15.9423 91.5184 15.9191 91.7045 15.8649C91.8906 15.8146 92.0253 15.7256 92.1005 15.6018C92.1797 15.4741 92.2233 15.358 92.2352 15.2535C92.247 15.1452 92.255 14.9749 92.255 14.735C92.255 14.3558 92.2272 14.0191 92.1758 13.725C92.1243 13.431 91.9976 13.0943 91.7995 12.7228C91.6015 12.3514 91.3243 12.0457 90.9758 11.8058C90.6273 11.5658 90.1244 11.3608 89.467 11.1905C88.8097 11.0202 88.0295 10.9351 87.1266 10.9351C85.503 10.9351 84.2951 11.264 83.4991 11.918C82.7071 12.5719 82.3111 13.4232 82.3111 14.468C82.3111 14.5957 82.2398 14.6576 82.0973 14.6576H78.6955C78.5648 14.6576 78.5015 14.5957 78.5015 14.468C78.5015 13.0053 78.9173 11.7477 79.7489 10.6875C80.5805 9.6272 81.6339 8.85716 82.9091 8.37347C84.1842 7.88978 85.5901 7.646 87.1227 7.646C89.9066 7.646 92.0807 8.25739 93.6489 9.48016C95.2171 10.7029 95.9973 12.4791 95.9973 14.8085V22.2814L96.0053 22.2729ZM24.6557 8.23811V27.4349H24.6517C24.6517 27.5626 24.7151 27.6245 24.8458 27.6245H28.2119C28.3426 27.6245 28.4059 27.5626 28.4059 27.4349V16.7975C28.4059 15.7644 28.6039 14.8086 29.0039 13.9341C29.4039 13.0557 30.0098 12.3398 30.8216 11.7787C31.6334 11.2177 32.5759 10.939 33.6452 10.939C34.5877 10.939 35.4114 11.1016 36.1123 11.4305C36.8133 11.7594 37.3598 12.2044 37.7558 12.7732C38.1518 13.342 38.4409 13.9612 38.627 14.6267C38.8131 15.2962 38.9082 16.0198 38.9082 16.8014V27.4388C38.9082 27.5665 38.9715 27.6284 39.1022 27.6284H42.4683C42.6109 27.6284 42.6822 27.5665 42.6822 27.4388V16.8014C42.6822 15.0872 42.3693 13.5549 41.7436 12.2005C41.1179 10.8462 40.1398 9.7511 38.8131 8.91141C37.4865 8.07172 35.8945 7.65381 34.0372 7.65381C32.8254 7.65381 31.78 7.88211 30.9048 8.34259C30.0256 8.80306 29.3445 9.36028 28.8534 10.0142C28.8019 10.0761 28.7267 10.111 28.6317 10.1187C28.5366 10.1226 28.4614 10.0761 28.4099 9.97553L28.3901 9.887V8.23844C28.3901 8.11074 28.3267 8.04883 28.1961 8.04883H27.8391C27.8354 8.04861 27.8316 8.0485 27.8278 8.0485H24.8497C24.7191 8.0485 24.6557 8.11042 24.6557 8.23811ZM47.4502 27.4313V0.565094C47.4502 0.437401 47.5215 0.375488 47.664 0.375488H51.0301C51.1608 0.375488 51.2242 0.437401 51.2242 0.565094V27.4313C51.2242 27.559 51.1608 27.6209 51.0301 27.6209H47.664C47.5215 27.6209 47.4502 27.559 47.4502 27.4313ZM57.9722 10.4282C56.2694 12.2779 55.418 14.7505 55.418 17.8345H55.4259C55.4259 20.8799 56.2971 23.337 58.0356 25.2021C59.7741 27.0673 62.1145 27.9998 65.0529 27.9998C67.3063 27.9998 69.2507 27.4697 70.8822 26.4133C72.5138 25.3531 73.5791 23.8865 74.082 22.0098C74.0979 21.9595 74.0939 21.9246 74.0741 21.8976C74.0543 21.8705 74.0266 21.8511 73.987 21.8395C73.9513 21.8279 73.9117 21.8202 73.8721 21.8202H70.3516C70.2367 21.8202 70.1457 21.8821 70.0823 22.0098C69.1121 23.8091 67.4369 24.7107 65.0529 24.7107C63.3501 24.7107 61.9878 24.1883 60.9621 23.1435C59.9365 22.0988 59.4256 20.8334 59.4256 19.3475C59.4256 19.2082 59.489 19.1386 59.6197 19.1386H74.3909C74.482 19.1386 74.5454 19.0767 74.585 18.949C74.6602 18.6471 74.6998 18.2757 74.6998 17.8345C74.6998 14.7582 73.8484 12.2934 72.1455 10.436C70.4427 8.57859 68.0666 7.6499 65.049 7.6499C62.0314 7.6499 59.6751 8.57859 57.9722 10.4282ZM59.6157 16.248C59.485 16.248 59.4217 16.1861 59.4217 16.0584V16.0545C59.4217 15.5786 59.5365 15.0562 59.7701 14.4874C60.0038 13.9186 60.3364 13.3652 60.776 12.8235C61.2156 12.2817 61.8136 11.8329 62.566 11.473C63.3184 11.1131 64.1065 10.9351 65.049 10.9351C65.9915 10.9351 66.831 11.0977 67.5637 11.4188C68.2963 11.74 68.8784 12.1618 69.3022 12.6764C69.7299 13.195 70.0467 13.7406 70.2605 14.321C70.4743 14.9014 70.5813 15.478 70.5813 16.0584C70.5813 16.1861 70.5179 16.248 70.3872 16.248H59.6157ZM81.5547 21.8201C81.5547 22.625 81.8834 23.3099 82.5408 23.871C83.1982 24.4321 84.2555 24.7107 85.7128 24.7107C86.8613 24.7107 87.8671 24.5559 88.7384 24.2463C89.6096 23.9368 90.2868 23.5266 90.7699 23.0197C91.2531 22.5128 91.6134 21.9633 91.851 21.3867C92.0886 20.8063 92.2233 20.2027 92.247 19.5719V19.0224C92.247 18.8948 92.1758 18.8328 92.0332 18.8328H86.5049C85.693 18.8715 84.9802 18.9567 84.3664 19.0882C83.7526 19.2198 83.2734 19.3823 82.9249 19.5719C82.5764 19.7615 82.2953 19.986 82.0854 20.2414C81.8715 20.5006 81.729 20.7521 81.6616 20.9959C81.5904 21.2397 81.5547 21.5144 81.5547 21.8163V21.8201ZM100.397 8.23807V27.4349C100.397 27.5626 100.46 27.6245 100.591 27.6245H103.957C104.1 27.6245 104.171 27.5626 104.171 27.4349V16.7975C104.171 15.7643 104.369 14.8086 104.769 13.934C105.169 13.0556 105.775 12.3398 106.579 11.7787C107.383 11.2176 108.321 10.939 109.39 10.939H111.402C111.545 10.939 111.616 10.8771 111.616 10.7494V7.83951C111.616 7.71181 111.545 7.6499 111.402 7.6499H109.39C108.476 7.6499 107.64 7.85499 106.888 8.26516C106.131 8.67533 105.367 9.25963 104.595 10.0142C104.531 10.0761 104.456 10.1109 104.373 10.1187C104.29 10.1225 104.222 10.0761 104.171 9.9755L104.167 9.95866V8.23844C104.167 8.11074 104.104 8.04883 103.973 8.04883H103.581C103.577 8.04859 103.573 8.04847 103.569 8.04847H100.591C100.46 8.04847 100.397 8.11038 100.397 8.23807ZM114.879 27.4349V8.23811C114.879 8.11042 114.943 8.0485 115.073 8.0485H118.051C118.055 8.0485 118.059 8.04861 118.063 8.04883H118.435C118.566 8.04883 118.629 8.11074 118.629 8.23844V9.95763L118.633 9.97553C118.685 10.0761 118.76 10.1226 118.855 10.1187C118.95 10.111 119.025 10.0761 119.077 10.0142C119.568 9.36028 120.249 8.80306 121.128 8.34259C122.003 7.88211 123.049 7.65381 124.261 7.65381C126.118 7.65381 127.71 8.07172 129.037 8.91141C130.363 9.7511 131.341 10.8462 131.967 12.2005C132.593 13.5549 132.906 15.0872 132.906 16.8014V27.4388C132.906 27.5665 132.834 27.6284 132.692 27.6284H129.326C129.195 27.6284 129.132 27.5665 129.132 27.4388V16.8014C129.132 16.0198 129.037 15.2962 128.851 14.6267C128.664 13.9612 128.375 13.342 127.979 12.7732C127.587 12.2083 127.037 11.7594 126.336 11.4305C125.635 11.1016 124.811 10.939 123.869 10.939C122.799 10.939 121.857 11.2177 121.045 11.7787C120.233 12.3398 119.627 13.0557 119.227 13.9341C118.827 14.8086 118.629 15.7644 118.629 16.7975V27.4349C118.629 27.5626 118.566 27.6245 118.435 27.6245H115.069C114.939 27.6245 114.875 27.5626 114.875 27.4349H114.879ZM167.822 8.23843V10.7498L167.826 10.7575C167.826 10.8852 167.889 10.9471 168.02 10.9471H171.541C171.671 10.9471 171.735 11.0168 171.735 11.1561V23.0588C171.723 24.6182 172.166 25.7791 173.069 26.5336C173.921 27.265 175.132 27.6287 176.705 27.6287H179.972C180.114 27.6287 180.186 27.5668 180.186 27.4391V24.5292C180.186 24.4015 180.114 24.3396 179.972 24.3396H177.651C176.221 24.3396 175.505 23.6972 175.505 22.4126V11.1522C175.505 11.0129 175.568 10.9432 175.699 10.9432H179.972C180.114 10.9432 180.186 10.8813 180.186 10.7536V8.2423C180.186 8.1146 180.114 8.05269 179.972 8.05269H175.699C175.568 8.05269 175.505 7.98304 175.505 7.84374V2.62759C175.505 2.4999 175.441 2.43799 175.311 2.43799H171.945C171.802 2.43799 171.731 2.4999 171.731 2.62759V7.83987C171.731 7.97917 171.667 8.04882 171.537 8.04882H168.016C167.885 8.04882 167.822 8.11074 167.822 8.23843ZM183.001 18.8758V8.23844C183.001 8.11074 183.072 8.04883 183.215 8.04883H186.581C186.712 8.04883 186.775 8.11074 186.775 8.23844V18.8758C186.775 19.6575 186.87 20.3811 187.056 21.0505C187.242 21.7199 187.532 22.3313 187.928 22.8924C188.32 23.4535 188.87 23.8985 189.571 24.2235C190.272 24.5524 191.096 24.7149 192.038 24.7149C193.107 24.7149 194.05 24.4363 194.862 23.8753C195.674 23.3142 196.279 22.5983 196.679 21.7315C197.079 20.8609 197.277 19.9128 197.277 18.8797V8.24231C197.277 8.11461 197.341 8.0527 197.471 8.0527H200.838C200.968 8.0527 201.032 8.11461 201.032 8.24231V27.4391C201.032 27.5668 200.968 27.6287 200.838 27.6287H197.86C197.841 27.6287 197.823 27.6261 197.807 27.6209H197.456C197.325 27.6209 197.262 27.559 197.262 27.4313V25.6938L197.305 25.8272L197.277 25.7017C197.226 25.6011 197.151 25.5546 197.056 25.5585C196.961 25.5662 196.885 25.6011 196.834 25.663C196.41 26.255 195.729 26.7929 194.794 27.2766C193.86 27.7603 192.814 28.0041 191.654 28.0041C190.07 28.0041 188.704 27.768 187.555 27.2959C186.407 26.8238 185.512 26.1583 184.866 25.3031C184.221 24.4479 183.75 23.4922 183.457 22.4397C183.16 21.3871 183.013 20.1992 183.013 18.8797L183.001 18.8758ZM204.35 17.8349C204.35 20.8724 205.206 23.3257 206.912 25.1947L206.908 25.1909C208.615 27.0598 210.9 27.9963 213.763 27.9963C214.718 27.9963 215.763 27.768 216.896 27.3075C218.032 26.847 218.876 26.3478 219.43 25.8061C219.613 25.632 219.739 25.6552 219.818 25.8835L219.818 27.4313C219.818 27.559 219.882 27.6209 220.012 27.6209H220.416C220.417 27.6209 220.419 27.6209 220.42 27.6209H223.398C223.529 27.6209 223.592 27.559 223.592 27.4313V0.565094C223.592 0.437401 223.529 0.375488 223.398 0.375488H220.032C219.89 0.375488 219.818 0.437401 219.818 0.565094V9.78621C219.818 9.87134 219.783 9.93325 219.704 9.96421C219.628 9.99517 219.537 9.96034 219.434 9.85973C219.058 9.44569 218.325 8.97361 217.229 8.44348C216.132 7.91335 214.979 7.65023 213.767 7.65023C210.904 7.65023 208.619 8.59052 206.912 10.4673C205.206 12.344 204.35 14.7973 204.35 17.8349ZM208.1 17.8349C208.1 15.7801 208.643 14.1201 209.724 12.847C210.805 11.5739 212.282 10.9393 214.152 10.9393C215.918 10.9393 217.304 11.5739 218.31 12.847C219.316 14.1201 219.818 15.7801 219.818 17.8349C219.818 19.8896 219.316 21.5496 218.31 22.815C217.304 24.0803 215.918 24.7149 214.152 24.7149C212.282 24.7149 210.805 24.0842 209.724 22.815C208.643 21.5457 208.1 19.8896 208.1 17.8349ZM228.962 4.62811V0.565094C228.962 0.437401 229.026 0.375488 229.156 0.375488H233.315C233.457 0.375488 233.528 0.437401 233.528 0.565094V4.62811C233.528 4.76742 233.457 4.83707 233.315 4.83707H229.156C229.026 4.83707 228.962 4.76742 228.962 4.62811ZM229.37 27.4352V8.2384C229.37 8.1107 229.434 8.04879 229.564 8.04879H232.93C233.061 8.04879 233.124 8.1107 233.124 8.2384V27.4352C233.124 27.5629 233.061 27.6248 232.93 27.6248H229.564C229.434 27.6248 229.37 27.5629 229.37 27.4352ZM239.968 10.4282C238.229 12.2779 237.358 14.7505 237.358 17.8345C237.358 20.8953 238.229 23.3564 239.968 25.2137C241.706 27.0711 244.138 27.9998 247.179 27.9998C250.22 27.9998 252.616 27.0711 254.37 25.2137C256.125 23.3564 257 20.8953 257 17.8345C257 14.7737 256.125 12.3127 254.37 10.4476C252.62 8.58246 250.244 7.6499 247.179 7.6499C244.114 7.6499 241.706 8.57859 239.968 10.4282ZM241.128 17.8345C241.128 15.7914 241.674 14.1314 242.763 12.8544C243.852 11.5736 245.314 10.9351 247.183 10.9351C249.052 10.9351 250.529 11.5697 251.61 12.8428C252.691 14.1159 253.234 15.7759 253.234 17.8307C253.234 19.8854 252.691 21.5454 251.61 22.8108C250.529 24.0761 249.04 24.7107 247.183 24.7107C245.326 24.7107 243.852 24.0761 242.763 22.803C241.674 21.5299 241.128 19.8777 241.128 17.8345Z" fill="black"/>
</svg>
